<svg xmlns="http://www.w3.org/2000/svg" viewBox="0 0 24 24" fill="none" stroke="currentColor" stroke-width="1" stroke-linecap="round" stroke-linejoin="round"><path d="M4.791666666666667 10.541666666666668a1.9166666666666667 1.9166666666666667 0 0 1 1.9166666666666667 1.9166666666666667v1.9166666666666667h9.583333333333334v-1.9166666666666667a1.9166666666666667 1.9166666666666667 0 1 1 3.8333333333333335 0v3.8333333333333335a1.9166666666666667 1.9166666666666667 0 0 1 -1.9166666666666667 1.9166666666666667H4.791666666666667a1.9166666666666667 1.9166666666666667 0 0 1 -1.9166666666666667 -1.9166666666666667v-3.8333333333333335a1.9166666666666667 1.9166666666666667 0 0 1 1.9166666666666667 -1.9166666666666667z"/><path d="M4.791666666666667 10.541666666666668V5.75a2.875 2.875 0 0 1 2.875 -2.875h7.666666666666667a2.875 2.875 0 0 1 2.875 2.875v4.791666666666667"/><path d="M5.75 18.208333333333336v1.9166666666666667"/><path d="M17.25 18.208333333333336v1.9166666666666667"/></svg>