<svg xmlns="http://www.w3.org/2000/svg" viewBox="0 0 24 24" fill="none" stroke="currentColor" stroke-width="1" stroke-linecap="round" stroke-linejoin="round"><path d="M6 4h11a1 1 0 0 1 .117 1.993l-.117 .007h-11a1 1 0 0 1 -.117 -1.993l.117 -.007z"/><path d="M7 20h10a1 1 0 0 0 .117 -1.993l-.117 -.007h-10a1 1 0 0 0 -.117 1.993l.117 .007z"/><path d="M9 16h6a1 1 0 0 0 .117 -1.993l-.117 -.007h-6a1 1 0 0 0 -.117 1.993l.117 .007z"/><path d="M10 12h4a1 1 0 0 0 .117 -1.993l-.117 -.007h-4a1 1 0 0 0 -.117 1.993l.117 .007z"/><path d="M11 8h2a1 1 0 0 0 .117 -1.993l-.117 -.007h-2a1 1 0 0 0 -.117 1.993l.117 .007z"/></svg>
