<svg xmlns="http://www.w3.org/2000/svg" viewBox="0 0 24 24" fill="none" stroke="currentColor" stroke-width="1" stroke-linecap="round" stroke-linejoin="round"><path d="M9 9m0 1a1 1 0 0 1 1 -1h4a1 1 0 0 1 1 1v4a1 1 0 0 1 -1 1h-4a1 1 0 0 1 -1 -1z"/><path d="M6 9v-3a1 1 0 0 1 1 -1h10a1 1 0 0 1 1 1v3"/><path d="M18 9v6"/><path d="M18 15v3a1 1 0 0 1 -1 1h-10a1 1 0 0 1 -1 -1v-3"/><path d="M6 15v-6"/><path d="M9 6v-1"/><path d="M12 6v-1"/><path d="M15 6v-1"/><path d="M9 19v-1"/><path d="M12 19v-1"/><path d="M15 19v-1"/></svg>
