<?xml version="1.0" encoding="UTF-8" standalone="no"?>
<!DOCTYPE svg PUBLIC "-//W3C//DTD SVG 1.1//EN" "http://www.w3.org/Graphics/SVG/1.1/DTD/svg11.dtd">
<svg width="100%" height="100%" viewBox="0 0 40 40" version="1.1" xmlns="http://www.w3.org/2000/svg" xmlns:xlink="http://www.w3.org/1999/xlink" xml:space="preserve" xmlns:serif="http://www.serif.com/" style="fill-rule:evenodd;clip-rule:evenodd;stroke-linejoin:round;stroke-miterlimit:2;">
    <g transform="matrix(1,0,0,1,73.5,20)">
        <g transform="matrix(1,0,0,1,-73.5,-20)">
            <g>
                <clipPath id="_clip1">
                    <rect x="0" y="0" width="146.859" height="40"/>
                </clipPath>
                <g clip-path="url(#_clip1)">
                    <path d="M37.721,28.922C39.51,28.339 40.19,25.508 39.242,22.6C38.293,19.692 36.074,17.807 34.285,18.391C32.497,18.974 31.816,21.805 32.765,24.713C33.714,27.621 35.933,29.506 37.721,28.922Z" style="fill:rgb(225,30,74);fill-rule:nonzero;"/>
                    <path d="M22.881,6.452C23.733,4.774 22.212,2.292 19.485,0.906C16.757,-0.479 13.856,-0.243 13.004,1.434C12.152,3.111 13.672,5.594 16.399,6.98C19.127,8.365 22.028,8.129 22.881,6.452Z" style="fill:rgb(225,30,74);fill-rule:nonzero;"/>
                    <path d="M31.786,8.25C32.668,7.088 32.221,5.265 30.788,4.177C29.355,3.089 27.478,3.149 26.597,4.31C25.715,5.472 26.162,7.296 27.595,8.383C29.028,9.471 30.905,9.411 31.786,8.25Z" style="fill:rgb(225,30,74);fill-rule:nonzero;"/>
                    <path d="M37.49,14.7C38.371,13.538 37.924,11.714 36.491,10.627C35.057,9.539 33.181,9.599 32.299,10.761C31.418,11.923 31.865,13.746 33.298,14.834C34.732,15.922 36.608,15.861 37.49,14.7Z" style="fill:rgb(225,30,74);fill-rule:nonzero;"/>
                    <path d="M30.959,32.924C31.98,28.452 30.654,24.336 28,23.731C25.346,23.125 22.367,26.259 21.347,30.731C20.327,35.203 21.652,39.319 24.306,39.924C26.961,40.53 29.939,37.395 30.959,32.924Z" style="fill:rgb(225,30,74);fill-rule:nonzero;"/>
                    <path d="M9.414,18.128C14.383,17.741 18.224,15.038 17.994,12.091C17.765,9.144 13.551,7.07 8.582,7.457C3.614,7.845 -0.228,10.548 0.002,13.494C0.232,16.441 4.446,18.516 9.414,18.128Z" style="fill:rgb(225,30,74);fill-rule:nonzero;"/>
                    <path d="M18.041,29.922C21.965,26.914 23.608,22.468 21.71,19.992C19.813,17.517 15.093,17.948 11.168,20.956C7.244,23.964 5.601,28.41 7.499,30.886C9.396,33.362 14.116,32.93 18.041,29.922Z" style="fill:rgb(225,30,74);fill-rule:nonzero;"/>
                </g>
            </g>
        </g>
    </g>
</svg>
