<svg width="147" height="40" viewBox="0 0 147 40" fill="none" xmlns="http://www.w3.org/2000/svg">
<g clip-path="url(#clip0_217_1442)">
<path d="M37.7213 28.9224C39.5098 28.3389 40.1904 25.5083 39.2415 22.6C38.2926 19.6918 36.0736 17.8072 34.2851 18.3907C32.4967 18.9742 31.8161 21.8049 32.765 24.7131C33.7139 27.6214 35.9329 29.506 37.7213 28.9224Z" fill="#E11E4A"/>
<path d="M22.8805 6.45155C23.7325 4.77433 22.2121 2.29151 19.4847 0.906025C16.7573 -0.479464 13.8556 -0.242968 13.0036 1.43425C12.1516 3.11147 13.6719 5.59429 16.3993 6.97978C19.1268 8.36527 22.0284 8.12878 22.8805 6.45155Z" fill="#E11E4A"/>
<path d="M31.7864 8.24982C32.6681 7.08818 32.2211 5.26463 30.788 4.17681C29.3548 3.08899 27.4783 3.14883 26.5965 4.31048C25.7148 5.47212 26.1618 7.29566 27.5949 8.38348C29.0281 9.4713 30.9047 9.41146 31.7864 8.24982Z" fill="#E11E4A"/>
<path d="M37.4899 14.6996C38.3714 13.5378 37.9241 11.7144 36.4907 10.6268C35.0574 9.53924 33.1808 9.59941 32.2993 10.7612C31.4177 11.923 31.8651 13.7465 33.2984 14.834C34.7318 15.9216 36.6083 15.8614 37.4899 14.6996Z" fill="#E11E4A"/>
<path d="M30.9594 32.9237C31.9795 28.452 30.6545 24.3362 28.0001 23.7307C25.3457 23.1252 22.367 26.2593 21.347 30.731C20.3269 35.2027 21.6518 39.3186 24.3062 39.9241C26.9606 40.5296 29.9394 37.3954 30.9594 32.9237Z" fill="#E11E4A"/>
<path d="M9.41436 18.128C14.3828 17.7405 18.2242 15.0376 17.9943 12.091C17.7645 9.14433 13.5505 7.06977 8.58205 7.4573C3.61363 7.84483 -0.227744 10.5477 0.0020916 13.4943C0.231927 16.441 4.44594 18.5155 9.41436 18.128Z" fill="#E11E4A"/>
<path d="M18.0408 29.922C21.9652 26.914 23.6082 22.4683 21.7104 19.9924C19.8126 17.5166 15.0928 17.948 11.1683 20.956C7.2439 23.9641 5.60094 28.4097 7.4987 30.8856C9.39647 33.3615 14.1163 32.9301 18.0408 29.922Z" fill="#E11E4A"/>
<path d="M66.8828 12.7344C67.832 12.7344 68.6016 11.9649 68.6016 11.0156C68.6016 10.0664 67.832 9.29687 66.8828 9.29687C65.9336 9.29687 65.1641 10.0664 65.1641 11.0156C65.1641 11.9649 65.9336 12.7344 66.8828 12.7344Z" fill="#E11E4A"/>
<path d="M86.8594 12.7344C87.8086 12.7344 88.5781 11.9649 88.5781 11.0156C88.5781 10.0664 87.8086 9.29687 86.8594 9.29687C85.9101 9.29687 85.1406 10.0664 85.1406 11.0156C85.1406 11.9649 85.9101 12.7344 86.8594 12.7344Z" fill="#E11E4A"/>
<path d="M63.1328 25.6641H59.3281V19.4141H53.0781V25.6641H49.3594V10.2656H53.0625V16.6563H59.3125V10.2656H63.125V25.6563L63.1328 25.6641Z" fill="#E11E4A"/>
<path d="M68.3984 14.2578H65.3594V25.6641H68.3984V14.2578Z" fill="#E11E4A"/>
<path d="M83.5078 19.2578H74.4297V25.6641H70.6484V16.2031C70.6595 15.5444 70.7701 14.8912 70.9766 14.2656C71.3551 13.0433 72.1961 12.0173 73.3203 11.4063C74.7005 10.6458 76.9401 10.2656 80.0391 10.2656H83.4766V12.8438H79.8203C78.8309 12.8086 77.8406 12.882 76.8672 13.0625C76.4261 13.1565 76.0106 13.3448 75.6492 13.6145C75.2878 13.8842 74.989 14.2289 74.7734 14.625C74.4592 15.2498 74.301 15.9414 74.3125 16.6406H83.4766V19.2188L83.5078 19.2578Z" fill="#E11E4A"/>
<path d="M88.375 14.2578H85.3359V25.6641H88.375V14.2578Z" fill="#E11E4A"/>
<path d="M104.828 21.5C104.838 22.0508 104.733 22.5977 104.521 23.106C104.308 23.6142 103.992 24.073 103.594 24.4531C103.205 24.8453 102.741 25.1547 102.229 25.3629C101.718 25.571 101.169 25.6734 100.617 25.6641H90.625V10.2656H100.227C101.278 10.2537 102.301 10.604 103.125 11.2578C103.528 11.5704 103.862 11.9628 104.107 12.4104C104.352 12.858 104.501 13.3513 104.547 13.8594C104.554 13.9478 104.554 14.0366 104.547 14.125V14.3906C104.578 15.1638 104.369 15.9276 103.95 16.5778C103.53 17.228 102.92 17.7329 102.203 18.0234C102.955 18.2774 103.617 18.7442 104.109 19.3672C104.584 19.9761 104.837 20.7282 104.828 21.5ZM100.844 21.3437C100.852 20.8565 100.679 20.3835 100.359 20.0156C100.209 19.8351 100.02 19.6908 99.8064 19.5934C99.5927 19.496 99.3598 19.4481 99.125 19.4531H93.9297V23.0469H99.2188C99.4357 23.0539 99.6515 23.0134 99.8512 22.9284C100.051 22.8434 100.23 22.7159 100.375 22.5547C100.681 22.2266 100.846 21.7921 100.836 21.3437H100.844ZM100.648 15.0937C100.659 14.5928 100.484 14.1056 100.156 13.7266C100.002 13.5426 99.8075 13.3959 99.5884 13.2971C99.3694 13.1984 99.1309 13.1503 98.8906 13.1562H94.0234V16.8359H99.0859C99.3003 16.8409 99.5129 16.797 99.7078 16.7077C99.9027 16.6184 100.075 16.4859 100.211 16.3203C100.492 15.9826 100.644 15.5564 100.641 15.1172L100.648 15.0937Z" fill="#E11E4A"/>
<path d="M125.969 16.0391L122.375 16.5625V25.4531H119.18V13.4453H122.375V15.1172C122.521 14.7398 122.735 14.3927 123.008 14.0937C123.28 13.8172 123.615 13.6108 123.984 13.4922C124.179 13.4271 124.377 13.3723 124.578 13.3281C125.035 13.2206 125.511 13.2206 125.969 13.3281V16.0156V16.0391Z" fill="#E11E4A"/>
<path d="M134.453 16.0391L130.859 16.5625V25.4531H127.656V13.4453H130.852V15.1172C130.997 14.7397 131.212 14.3926 131.484 14.0937C131.756 13.8169 132.091 13.6105 132.461 13.4922C132.656 13.4271 132.854 13.3724 133.055 13.3281C133.512 13.2206 133.988 13.2206 134.445 13.3281V16.0156L134.453 16.0391Z" fill="#E11E4A"/>
<path d="M146.875 13.4453V25.9453C146.881 26.4411 146.768 26.9312 146.547 27.375C146.331 27.7992 146.04 28.1805 145.687 28.5C145.203 28.9318 144.634 29.2566 144.016 29.4531C143.344 29.6368 142.649 29.7236 141.953 29.7109H135.648V27.2109H142.187C142.493 27.2066 142.787 27.0992 143.023 26.9062C143.183 26.7956 143.315 26.6487 143.407 26.4777C143.499 26.3066 143.55 26.1162 143.555 25.9219V25.4531H140.625C140.012 25.4672 139.4 25.3855 138.812 25.2109C138.266 25.0158 137.774 24.6946 137.375 24.2734C136.973 23.8891 136.656 23.4252 136.443 22.9114C136.231 22.3975 136.128 21.845 136.141 21.289V13.4765H139.523V21.1562C139.517 21.3896 139.538 21.623 139.586 21.8515C139.651 22.0458 139.764 22.2206 139.914 22.3594C140.083 22.5382 140.296 22.6701 140.531 22.7422C140.814 22.8171 141.106 22.8513 141.398 22.8437H143.586V13.4687H146.875V13.4453Z" fill="#E11E4A"/>
<path d="M115.719 14.4609C114.612 13.6766 113.286 13.2635 111.93 13.2812C111.042 13.2267 110.153 13.3757 109.331 13.7169C108.509 14.0581 107.776 14.5824 107.187 15.25C106.109 16.5 106.023 17.9375 106.023 19.6172C106.023 21.1797 106.023 22.5234 107.047 23.7109C107.471 24.2572 108.013 24.7005 108.633 25.0076C109.252 25.3147 109.933 25.4777 110.625 25.4844H116.281V23.2734H112.211C111.762 23.2821 111.314 23.2402 110.875 23.1484C110.519 23.0692 110.192 22.8935 109.93 22.6406C109.694 22.4267 109.514 22.1585 109.406 21.8594C109.315 21.5555 109.273 21.239 109.281 20.9219H117.297C117.437 19.9453 117.477 18.6406 117.477 18.6406C117.492 16.8672 117.25 15.5469 115.719 14.4609ZM109.289 18.4219C109.273 17.8875 109.44 17.3638 109.763 16.9375C110.085 16.5112 110.544 16.208 111.062 16.0781C111.619 15.9349 112.202 15.9349 112.758 16.0781C113.276 16.208 113.735 16.5112 114.058 16.9375C114.38 17.3638 114.547 17.8875 114.531 18.4219H109.289Z" fill="#E11E4A"/>
</g>
<defs>
<clipPath id="clip0_217_1442">
<rect width="146.859" height="40" fill="white"/>
</clipPath>
</defs>
</svg>
