<svg xmlns="http://www.w3.org/2000/svg" viewBox="-0.5 -0.5 24 24" fill="none" stroke="#000000" stroke-linecap="round" stroke-linejoin="round" id="Binary--Streamline-Tabler" height="24" width="24">
  <desc>
    Binary Streamline Icon: https://streamlinehq.com
  </desc>
  <path d="M10.541666666666668 9.583333333333334V4.791666666666667h-0.9583333333333334m7.666666666666667 13.416666666666668v-4.791666666666667h-0.9583333333333334" stroke-width="1"></path>
  <path d="M14.375 5.270833333333334a0.4791666666666667 0.4791666666666667 0 0 1 0.4791666666666667 -0.4791666666666667h1.9166666666666667a0.4791666666666667 0.4791666666666667 0 0 1 0.4791666666666667 0.4791666666666667v3.8333333333333335a0.4791666666666667 0.4791666666666667 0 0 1 -0.4791666666666667 0.4791666666666667h-1.9166666666666667a0.4791666666666667 0.4791666666666667 0 0 1 -0.4791666666666667 -0.4791666666666667z" stroke-width="1"></path>
  <path d="M9.583333333333334 13.895833333333334a0.4791666666666667 0.4791666666666667 0 0 1 0.4791666666666667 -0.4791666666666667h1.9166666666666667a0.4791666666666667 0.4791666666666667 0 0 1 0.4791666666666667 0.4791666666666667v3.8333333333333335a0.4791666666666667 0.4791666666666667 0 0 1 -0.4791666666666667 0.4791666666666667h-1.9166666666666667a0.4791666666666667 0.4791666666666667 0 0 1 -0.4791666666666667 -0.4791666666666667z" stroke-width="1"></path>
  <path d="M5.75 9.583333333333334h0.009583333333333334M5.75 18.208333333333336h0.009583333333333334" stroke-width="1"></path>
</svg>
