<svg class="css-icon" viewBox="-1 -1 23 23" xmlns="http://www.w3.org/2000/svg" fill="none" stroke="currentColor" stroke-width="1" stroke-linecap="round" stroke-linejoin="round">
  <path d="M10.541666666666668 9.583333333333334V4.791666666666667h-0.9583333333333334m7.666666666666667 13.416666666666668v-4.791666666666667h-0.9583333333333334"/>
  <path d="M14.375 5.270833333333334a0.4791666666666667 0.4791666666666667 0 0 1 0.4791666666666667 -0.4791666666666667h1.9166666666666667a0.4791666666666667 0.4791666666666667 0 0 1 0.4791666666666667 0.4791666666666667v3.8333333333333335a0.4791666666666667 0.4791666666666667 0 0 1 -0.4791666666666667 0.4791666666666667h-1.9166666666666667a0.4791666666666667 0.4791666666666667 0 0 1 -0.4791666666666667 -0.4791666666666667z"/>
  <path d="M9.583333333333334 13.895833333333334a0.4791666666666667 0.4791666666666667 0 0 1 0.4791666666666667 -0.4791666666666667h1.9166666666666667a0.4791666666666667 0.4791666666666667 0 0 1 0.4791666666666667 0.4791666666666667v3.8333333333333335a0.4791666666666667 0.4791666666666667 0 0 1 -0.4791666666666667 0.4791666666666667h-1.9166666666666667a0.4791666666666667 0.4791666666666667 0 0 1 -0.4791666666666667 -0.4791666666666667z"/>
  <path d="M5.75 9.583333333333334h0.009583333333333334M5.75 18.208333333333336h0.009583333333333334"/>
</svg>