<svg width="16" height="16" viewBox="0 0 16 16" fill="none" xmlns="http://www.w3.org/2000/svg">
<path d="M13.3537 6.35375L8.35374 11.3538C8.30731 11.4002 8.25216 11.4371 8.19146 11.4623C8.13076 11.4874 8.0657 11.5004 7.99999 11.5004C7.93428 11.5004 7.86922 11.4874 7.80852 11.4623C7.74782 11.4371 7.69268 11.4002 7.64624 11.3538L2.64624 6.35375C2.55242 6.25993 2.49971 6.13269 2.49971 6C2.49971 5.86732 2.55242 5.74007 2.64624 5.64625C2.74006 5.55243 2.86731 5.49973 2.99999 5.49973C3.13267 5.49973 3.25992 5.55243 3.35374 5.64625L7.99999 10.2931L12.6462 5.64625C12.6927 5.5998 12.7478 5.56295 12.8085 5.53781C12.8692 5.51267 12.9343 5.49973 13 5.49973C13.0657 5.49973 13.1307 5.51267 13.1914 5.53781C13.2521 5.56295 13.3073 5.5998 13.3537 5.64625C13.4002 5.69271 13.437 5.74786 13.4622 5.80856C13.4873 5.86925 13.5003 5.93431 13.5003 6C13.5003 6.0657 13.4873 6.13076 13.4622 6.19145C13.437 6.25215 13.4002 6.3073 13.3537 6.35375Z" fill="currentColor"/>
</svg>
