<svg class="css-icon" viewBox="-1 -1 23 23" xmlns="http://www.w3.org/2000/svg" fill="none" stroke="currentColor" stroke-width="1" stroke-linecap="round" stroke-linejoin="round">
  <path d="M2.64625 9.64625L7.64625 4.64625C7.69268 4.5998 7.74782 4.56295 7.80852 4.53781C7.86922 4.51267 7.93428 4.49973 7.99999 4.49973C8.0657 4.49973 8.13076 4.51267 8.19146 4.53781C8.25216 4.56295 8.30731 4.5998 8.35374 4.64625L13.3537 9.64625C13.4476 9.74007 13.5003 9.86732 13.5003 10C13.5003 10.1327 13.4476 10.2599 13.3537 10.3538C13.2599 10.4476 13.1327 10.5003 13 10.5003C12.8673 10.5003 12.7401 10.4476 12.6462 10.3538L7.99999 5.7069L3.35374 10.3538C3.30729 10.4002 3.25214 10.437 3.19145 10.4622C3.13075 10.4873 3.0657 10.5003 2.99999 10.5003C2.93428 10.5003 2.86923 10.4873 2.80853 10.4622C2.74784 10.437 2.69269 10.4002 2.64625 10.3538C2.5998 10.3073 2.56295 10.2522 2.53781 10.1915C2.51267 10.1308 2.49973 10.0657 2.49973 10C2.49973 9.9343 2.51267 9.86925 2.53781 9.80855C2.56295 9.74786 2.5998 9.69271 2.64625 9.64625Z"/>
</svg>