<svg class="css-icon" viewBox="-1 -1 23 23" xmlns="http://www.w3.org/2000/svg" fill="none" stroke="currentColor" stroke-width="1" stroke-linecap="round" stroke-linejoin="round">
  <path d="M3.8333333333333335 5.75c0 1.5879583333333334 3.43275 2.875 7.666666666666667 2.875s7.666666666666667 -1.2870416666666666 7.666666666666667 -2.875 -3.43275 -2.875 -7.666666666666667 -2.875 -7.666666666666667 1.2870416666666666 -7.666666666666667 2.875"/>
  <path d="M3.8333333333333335 5.75v5.75c0 1.5879583333333334 3.43275 2.875 7.666666666666667 2.875 0.20125 0 0.4025 -0.0028750000000000004 0.5999166666666667 -0.009583333333333334"/>
  <path d="M19.166666666666668 11.020833333333334V5.75"/>
  <path d="M3.8333333333333335 11.5v5.75c0 1.5879583333333334 3.43275 2.875 7.666666666666667 2.875"/>
  <path d="M16.292625 18.208333333333336a1.9166666666666667 1.9166666666666667 0 1 0 3.8333333333333335 0 1.9166666666666667 1.9166666666666667 0 1 0 -3.8333333333333335 0"/>
  <path d="M18.20929166666667 14.854166666666668V16.291666666666668"/>
  <path d="M18.20929166666667 20.125v1.4375"/>
  <path d="m21.114 16.53125 -1.244875 0.71875"/>
  <path d="m16.550416666666667 19.166666666666668 -1.2458333333333333 0.71875"/>
  <path d="m15.304583333333335 16.53125 1.2458333333333333 0.71875"/>
  <path d="m19.869125 19.166666666666668 1.2458333333333333 0.71875"/>
</svg>