<svg xmlns="http://www.w3.org/2000/svg" viewBox="-0.5 -0.5 24 24" fill="none" stroke="#000000" stroke-linecap="round" stroke-linejoin="round" id="Database-Cog--Streamline-Tabler" height="24" width="24">
  <desc>
    Database Cog Streamline Icon: https://streamlinehq.com
  </desc>
  <path d="M3.8333333333333335 5.75c0 1.5879583333333334 3.43275 2.875 7.666666666666667 2.875s7.666666666666667 -1.2870416666666666 7.666666666666667 -2.875 -3.43275 -2.875 -7.666666666666667 -2.875 -7.666666666666667 1.2870416666666666 -7.666666666666667 2.875" stroke-width="1"></path>
  <path d="M3.8333333333333335 5.75v5.75c0 1.5879583333333334 3.43275 2.875 7.666666666666667 2.875 0.20125 0 0.4025 -0.0028750000000000004 0.5999166666666667 -0.009583333333333334" stroke-width="1"></path>
  <path d="M19.166666666666668 11.020833333333334V5.75" stroke-width="1"></path>
  <path d="M3.8333333333333335 11.5v5.75c0 1.5879583333333334 3.43275 2.875 7.666666666666667 2.875" stroke-width="1"></path>
  <path d="M16.292625 18.208333333333336a1.9166666666666667 1.9166666666666667 0 1 0 3.8333333333333335 0 1.9166666666666667 1.9166666666666667 0 1 0 -3.8333333333333335 0" stroke-width="1"></path>
  <path d="M18.20929166666667 14.854166666666668V16.291666666666668" stroke-width="1"></path>
  <path d="M18.20929166666667 20.125v1.4375" stroke-width="1"></path>
  <path d="m21.114 16.53125 -1.244875 0.71875" stroke-width="1"></path>
  <path d="m16.550416666666667 19.166666666666668 -1.2458333333333333 0.71875" stroke-width="1"></path>
  <path d="m15.304583333333335 16.53125 1.2458333333333333 0.71875" stroke-width="1"></path>
  <path d="m19.869125 19.166666666666668 1.2458333333333333 0.71875" stroke-width="1"></path>
</svg>
