<svg class="css-icon" viewBox="-1 -1 23 23" xmlns="http://www.w3.org/2000/svg" fill="none" stroke="currentColor" stroke-width="1" stroke-linecap="round" stroke-linejoin="round">
  <path d="M17.5,4.486c0,-0.545 -0.441,-0.986 -0.986,-0.986c-2.571,0 -9.457,0 -12.028,0c-0.545,0 -0.986,0.441 -0.986,0.986c0,2.571 0,9.457 0,12.028c0,0.545 0.441,0.986 0.986,0.986c2.571,0 9.457,0 12.028,0c0.545,0 0.986,-0.441 0.986,-0.986c0,-2.571 0,-9.457 0,-12.028Z"/>
  <path d="M6.5,0.5l0,3"/>
  <path d="M14.5,0.5l0,3"/>
  <path d="M10.5,0.5l0,3"/>
  <path d="M3.5,6.5l-3,0"/>
  <path d="M3.5,10.5l-3,0"/>
  <path d="M3.5,14.5l-3,0"/>
  <path d="M6.5,17.5l0,3"/>
  <path d="M10.5,17.5l0,3"/>
  <path d="M14.5,17.5l0,3"/>
  <path d="M17.5,14.5l3,0"/>
  <path d="M17.5,10.5l3,0"/>
  <path d="M17.5,6.5l3,0"/>
  <path d="M6.5,10.5c0,0 1.012,-1 2,-1c1.985,0 2.011,2 4,2c1.016,0 2,-1 2,-1"/>
</svg>