<svg class="css-icon" viewBox="-1 -1 23 23" xmlns="http://www.w3.org/2000/svg" fill="none" stroke="currentColor" stroke-width="1" stroke-linecap="round" stroke-linejoin="round">
  <path d="M9.485,0.551c0.334,-0.034 0.672,-0.051 1.015,-0.051c0.343,0 0.681,0.017 1.015,0.051l0.971,3.235c0.475,0.141 0.929,0.33 1.356,0.563l2.973,-1.601c0.526,0.429 1.008,0.911 1.437,1.437l-1.601,2.973c0.233,0.427 0.422,0.881 0.563,1.356l3.235,0.971c0.034,0.334 0.051,0.672 0.051,1.015c0,0.343 -0.017,0.681 -0.051,1.015l-3.235,0.971c-0.141,0.475 -0.33,0.929 -0.563,1.356l1.601,2.973c-0.429,0.526 -0.911,1.008 -1.437,1.437l-2.973,-1.601c-0.427,0.233 -0.881,0.422 -1.356,0.563l-0.971,3.235c-0.334,0.034 -0.672,0.051 -1.015,0.051c-0.343,0 -0.681,-0.017 -1.015,-0.051l-0.971,-3.235c-0.475,-0.141 -0.929,-0.33 -1.356,-0.563l-2.973,1.601c-0.526,-0.429 -1.008,-0.911 -1.437,-1.437l1.601,-2.973c-0.233,-0.427 -0.422,-0.881 -0.563,-1.356l-3.235,-0.971c-0.034,-0.334 -0.051,-0.672 -0.051,-1.015c0,-0.343 0.017,-0.681 0.051,-1.015l3.235,-0.971c0.141,-0.475 0.33,-0.929 0.563,-1.356l-1.601,-2.973c0.429,-0.526 0.911,-1.008 1.437,-1.437l2.973,1.601c0.427,-0.233 0.881,-0.422 1.356,-0.563l0.971,-3.235Z"/>
  <circle cx="10.5" cy="10.5" r="4"/>
</svg>