<svg class="css-icon" viewBox="-1 -1 23 23" xmlns="http://www.w3.org/2000/svg" fill="none" stroke="currentColor" stroke-width="1" stroke-linecap="round" stroke-linejoin="round">
  <path d="M7.5,3.5L7.5,3.5C5.843,3.5 4.5,4.843 4.5,6.5C4.5,7.155 4.5,7.847 4.5,8.502C4.5,9.297 4.184,10.06 3.622,10.622C3.06,11.184 2.297,11.5 1.502,11.5C1.501,11.5 1.5,11.5 1.5,11.5L1.502,11.5C2.297,11.5 3.06,11.816 3.622,12.378C4.184,12.94 4.5,13.703 4.5,14.498C4.5,15.153 4.5,15.845 4.5,16.5C4.5,18.157 5.843,19.5 7.5,19.5C7.5,19.5 7.5,19.5 7.5,19.5"1";"/>
    <g transform="matrix(-1,-1.22465e-16,1.22465e-16,-1,23,23)">
        <path d="M7.5,3.5L7.5,3.5C5.843,3.5 4.5,4.843 4.5,6.5C4.5,7.155 4.5,7.847 4.5,8.502C4.5,9.297 4.184,10.06 3.622,10.622C3.06,11.184 2.297,11.5 1.502,11.5C1.501,11.5 1.5,11.5 1.5,11.5L1.502,11.5C2.297,11.5 3.06,11.816 3.622,12.378C4.184,12.94 4.5,13.703 4.5,14.498C4.5,15.153 4.5,15.845 4.5,16.5C4.5,18.157 5.843,19.5 7.5,19.5C7.5,19.5 7.5,19.5 7.5,19.5"1";"/>
    </g>
    <circle cx="11.5" cy="11.5" r="0.5"1";"/>
    <circle cx="15.5" cy="11.5" r="0.5"1";"/>
    <circle cx="7.5" cy="11.5" r="0.5"1";"/>
</svg>