<svg class="css-icon" viewBox="-1 -1 23 23" xmlns="http://www.w3.org/2000/svg" fill="none" stroke="currentColor" stroke-width="1" stroke-linecap="round" stroke-linejoin="round">
  <path d="M17.5,10.473c0,-0.258 -0.102,-0.506 -0.285,-0.688c-0.182,-0.183 -0.43,-0.285 -0.688,-0.285c-2.564,0 -9.49,0 -12.054,0c-0.258,0 -0.506,0.102 -0.688,0.285c-0.183,0.182 -0.285,0.43 -0.285,0.688c0,1.912 0,6.142 0,8.054c0,0.258 0.102,0.506 0.285,0.688c0.182,0.183 0.43,0.285 0.688,0.285c2.564,0 9.49,0 12.054,0c0.258,0 0.506,-0.102 0.688,-0.285c0.183,-0.182 0.285,-0.43 0.285,-0.688c0,-1.912 0,-6.142 0,-8.054Z"/>
  <path d="M5.5,7.5c0,0 0,-0.872 0,-2c0,-1.326 0.527,-2.598 1.464,-3.536c0.938,-0.937 2.21,-1.464 3.536,-1.464c0,0 0,0 0,0c1.326,0 2.598,0.527 3.536,1.464c0.937,0.938 1.464,2.21 1.464,3.536c0,1.128 0,2 0,2"/>
  <circle cx="10.5" cy="14.5" r="1"/>
</svg>