<svg width="32" height="32" viewBox="0 0 32 32" fill="none" xmlns="http://www.w3.org/2000/svg">
<path d="M3.50039 16C3.50271 13.7464 4.39899 11.5857 5.99254 9.99218C7.5861 8.39863 9.74676 7.50235 12.0004 7.50003H26.7929L24.6466 5.35378C24.5528 5.25996 24.5001 5.13272 24.5001 5.00003C24.5001 4.86735 24.5528 4.7401 24.6466 4.64628C24.7405 4.55246 24.8677 4.49976 25.0004 4.49976C25.1331 4.49976 25.2603 4.55246 25.3541 4.64628L28.3541 7.64628C28.4006 7.69272 28.4375 7.74786 28.4627 7.80856C28.4878 7.86926 28.5008 7.93433 28.5008 8.00003C28.5008 8.06574 28.4878 8.13081 28.4627 8.1915C28.4375 8.2522 28.4006 8.30735 28.3541 8.35378L25.3541 11.3538C25.2603 11.4476 25.1331 11.5003 25.0004 11.5003C24.8677 11.5003 24.7405 11.4476 24.6466 11.3538C24.5528 11.26 24.5001 11.1327 24.5001 11C24.5001 10.8674 24.5528 10.7401 24.6466 10.6463L26.7929 8.50003H12.0004C10.012 8.50235 8.10567 9.29327 6.69965 10.6993C5.29363 12.1053 4.50271 14.0116 4.50039 16C4.50039 16.1326 4.44771 16.2598 4.35395 16.3536C4.26018 16.4474 4.133 16.5 4.00039 16.5C3.86779 16.5 3.74061 16.4474 3.64684 16.3536C3.55307 16.2598 3.50039 16.1326 3.50039 16ZM28.0004 15.5C27.8678 15.5 27.7406 15.5527 27.6468 15.6465C27.5531 15.7402 27.5004 15.8674 27.5004 16C27.4981 17.9884 26.7072 19.8948 25.3011 21.3008C23.8951 22.7068 21.9888 23.4977 20.0004 23.5H5.20789L7.35414 21.3538C7.44796 21.26 7.50067 21.1327 7.50067 21C7.50067 20.8674 7.44796 20.7401 7.35414 20.6463C7.26032 20.5525 7.13308 20.4998 7.00039 20.4998C6.86771 20.4998 6.74046 20.5525 6.64664 20.6463L3.64664 23.6463C3.60016 23.6927 3.56328 23.7479 3.53811 23.8086C3.51295 23.8693 3.5 23.9343 3.5 24C3.5 24.0657 3.51295 24.1308 3.53811 24.1915C3.56328 24.2522 3.60016 24.3073 3.64664 24.3538L6.64664 27.3538C6.74046 27.4476 6.86771 27.5003 7.00039 27.5003C7.13308 27.5003 7.26032 27.4476 7.35414 27.3538C7.44796 27.26 7.50067 27.1327 7.50067 27C7.50067 26.8674 7.44796 26.7401 7.35414 26.6463L5.20789 24.5H20.0004C22.254 24.4977 24.4147 23.6014 26.0082 22.0079C27.6018 20.4143 28.4981 18.2537 28.5004 16C28.5004 15.8674 28.4477 15.7402 28.3539 15.6465C28.2602 15.5527 28.133 15.5 28.0004 15.5Z" fill="currentColor"/>
</svg>
