<svg viewBox="0 0 16 16" xmlns="http://www.w3.org/2000/svg" aria-hidden="true">
<path d="M12.5 8C14.433 8 16 6.433 16 4.5C16 2.567 14.433 1 12.5 1C10.567 1 9 2.567 9 4.5C9 6.433 10.567 8 12.5 8ZM12.3403 6.49876V3.29053L11.2955 3.97761V3.26782L12.4369 2.50125H13.0104V6.49876H12.3403Z" fill="currentColor"></path>
<path d="M6 3.25H7.65752C7.55469 3.64952 7.5 4.06838 7.5 4.5C7.5 4.58383 7.50206 4.66718 7.50614 4.75H6C4.20507 4.75 2.75 6.20507 2.75 8C2.75 8.51028 2.8676 8.9931 3.07718 9.42282L1.9756 10.5244C1.51588 9.79307 1.25 8.92759 1.25 8C1.25 5.37665 3.37665 3.25 6 3.25Z" fill="currentColor"></path>
<path d="M12.8917 9.48488C13.5133 9.43671 14.1031 9.27486 14.6402 9.0201C14.1734 11.1532 12.2732 12.75 10 12.75L5.31065 12.75L6.03032 13.4697L4.96966 14.5303L2.43933 12L4.96966 9.46967L6.03032 10.5303L5.31066 11.25L10 11.25C11.2599 11.25 12.3524 10.5331 12.8917 9.48488Z" fill="currentColor"></path>
</svg>