<svg class="css-icon" viewBox="-1 -1 23 23" xmlns="http://www.w3.org/2000/svg" fill="none" stroke="currentColor" stroke-width="1" stroke-linecap="round" stroke-linejoin="round">
  <path d="M1.25 8C1.25 5.37665 3.37665 3.25 6 3.25H10C12.6234 3.25 14.75 5.37665 14.75 8C14.75 10.6234 12.6234 12.75 10 12.75L5.31065 12.75L6.03032 13.4697L4.96966 14.5303L2.43933 12L4.96966 9.46967L6.03032 10.5303L5.31066 11.25L10 11.25C11.7949 11.25 13.25 9.79493 13.25 8C13.25 6.20507 11.7949 4.75 10 4.75H6C4.20507 4.75 2.75 6.20507 2.75 8C2.75 8.51028 2.8676 8.9931 3.07718 9.42282L1.9756 10.5244C1.51588 9.79307 1.25 8.92759 1.25 8Z"/>
</svg>