<svg width="16" height="16" viewBox="0 0 16 16" fill="none" xmlns="http://www.w3.org/2000/svg">
<path d="M14.2681 13.735L11.0568 10.5238C11.9726 9.47065 12.4437 8.10314 12.3708 6.70948C12.2979 5.31582 11.6868 4.0049 10.6662 3.05306C9.64562 2.10121 8.29534 1.58279 6.89999 1.6071C5.50464 1.6314 4.17323 2.19652 3.18642 3.18333C2.19961 4.17014 1.63449 5.50154 1.61019 6.89689C1.58589 8.29224 2.1043 9.64252 3.05615 10.6631C4.008 11.6837 5.31892 12.2948 6.71258 12.3677C8.10623 12.4406 9.47374 11.9695 10.5268 11.0538L13.7381 14.265C13.8092 14.3312 13.9032 14.3673 14.0004 14.3656C14.0975 14.3639 14.1902 14.3245 14.2589 14.2558C14.3276 14.1871 14.367 14.0944 14.3687 13.9973C14.3704 13.9001 14.3343 13.8061 14.2681 13.735ZM2.3781 7C2.3781 6.08526 2.64935 5.19106 3.15755 4.43049C3.66575 3.66991 4.38808 3.07711 5.23318 2.72706C6.07829 2.377 7.00823 2.28541 7.90539 2.46387C8.80255 2.64232 9.62665 3.08281 10.2735 3.72963C10.9203 4.37645 11.3608 5.20055 11.5392 6.09771C11.7177 6.99487 11.6261 7.9248 11.276 8.76991C10.926 9.61502 10.3332 10.3373 9.57261 10.8455C8.81203 11.3537 7.91783 11.625 7.0031 11.625C5.77693 11.6235 4.6014 11.1358 3.73437 10.2687C2.86734 9.40169 2.37958 8.22617 2.3781 7Z" fill="currentColor"/>
</svg>
