<svg width="24" height="24" viewBox="0 0 24 24" fill="none" xmlns="http://www.w3.org/2000/svg">
<path d="M22.8794 13.9763C22.8243 13.9212 22.7553 13.8821 22.6797 13.8632C22.6041 13.8443 22.5248 13.8463 22.4503 13.8691C20.7396 14.3861 18.9207 14.4293 17.1874 13.9942C15.4541 13.5591 13.8713 12.6618 12.6077 11.3981C11.3441 10.1344 10.447 8.55154 10.012 6.8182C9.57704 5.08486 9.62045 3.26597 10.1376 1.55536C10.1606 1.48081 10.1628 1.40141 10.144 1.3257C10.1252 1.24999 10.0861 1.18084 10.031 1.12568C9.9758 1.07052 9.90665 1.03144 9.83094 1.01264C9.75523 0.993846 9.67583 0.996045 9.60128 1.019C7.42599 1.68643 5.51674 3.0232 4.14545 4.83894C2.59613 6.90469 1.84395 9.45998 2.027 12.0357C2.21005 14.6114 3.31604 17.0346 5.14193 18.8605C6.96781 20.6864 9.39104 21.7924 11.9667 21.9754C14.5424 22.1585 17.0977 21.4063 19.1635 19.857C20.9786 18.4851 22.3146 16.5754 22.9813 14.4001C23.0037 14.3268 23.006 14.2488 22.9881 14.1743C22.9702 14.0998 22.9326 14.0314 22.8794 13.9763ZM18.6507 19.1758C16.7503 20.6059 14.3974 21.3017 12.0248 21.135C9.65229 20.9684 7.41973 19.9505 5.73795 18.2687C4.05617 16.587 3.03831 14.3544 2.87165 11.9818C2.70499 9.6093 3.40075 7.25637 4.83091 5.35599C5.93213 3.89975 7.41186 2.77363 9.1089 2.1003C8.72045 3.86136 8.78183 5.69189 9.2874 7.42297C9.79296 9.15405 10.7264 10.7299 12.0016 12.0051C13.2768 13.2803 14.8526 14.2137 16.5837 14.7193C18.3148 15.2249 20.1453 15.2862 21.9064 14.8978C21.2331 16.5948 20.1069 18.0746 18.6507 19.1758Z" fill="currentColor"/>
</svg>
