<svg width="120" height="120" viewBox="0 0 120 120" fill="none" xmlns="http://www.w3.org/2000/svg">
<path d="M44.3438 96.5217V18.2609L101.735 7.82608V18.2609" stroke="currentColor" stroke-width="5.21739" stroke-linecap="round" stroke-linejoin="round"/>
<path d="M101.738 28.6957V86.087" stroke="currentColor" stroke-width="5.21739" stroke-linecap="round" stroke-linejoin="round"/>
<path d="M86.0897 101.739C94.7341 101.739 101.742 94.7314 101.742 86.0869C101.742 77.4424 94.7341 70.4347 86.0897 70.4347C77.4452 70.4347 70.4375 77.4424 70.4375 86.0869C70.4375 94.7314 77.4452 101.739 86.0897 101.739Z" stroke="currentColor" stroke-width="5.21739" stroke-linecap="round" stroke-linejoin="round"/>
<path d="M28.699 112.174C37.3435 112.174 44.3512 105.166 44.3512 96.5218C44.3512 87.8773 37.3435 80.8696 28.699 80.8696C20.0546 80.8696 13.0469 87.8773 13.0469 96.5218C13.0469 105.166 20.0546 112.174 28.699 112.174Z" stroke="currentColor" stroke-width="5.21739" stroke-linecap="round" stroke-linejoin="round"/>
<path d="M54.7852 37.2313L101.742 28.6957" stroke="currentColor" stroke-width="5.21739" stroke-linecap="round" stroke-linejoin="round"/>
</svg>
