<svg class="css-icon" viewBox="-1 -1 23 23" xmlns="http://www.w3.org/2000/svg" fill="none" stroke="currentColor" stroke-width="1" stroke-linecap="round" stroke-linejoin="round">
  <path d="M19.6612 5.46092L12.1612 3.21092C12.0773 3.18579 11.9886 3.18064 11.9022 3.19588C11.8159 3.21112 11.7343 3.24633 11.664 3.2987C11.5937 3.35107 11.5366 3.41914 11.4973 3.4975C11.4579 3.57585 11.4375 3.66232 11.4375 3.74999V14.3484C10.7596 13.6045 9.84286 13.1212 8.84608 12.9821C7.8493 12.8429 6.83525 13.0568 5.97958 13.5867C5.12391 14.1166 4.48052 14.929 4.16083 15.8834C3.84115 16.8377 3.86532 17.8738 4.22915 18.8121C4.59298 19.7505 5.27356 20.5321 6.153 21.0215C7.03244 21.5109 8.05536 21.6773 9.04457 21.4918C10.0338 21.3064 10.927 20.7808 11.5695 20.0061C12.2119 19.2314 12.5632 18.2564 12.5625 17.25V4.50561L19.3378 6.53905C19.4086 6.56029 19.4829 6.56737 19.5564 6.5599C19.6299 6.55243 19.7013 6.53055 19.7664 6.49551C19.8314 6.46047 19.889 6.41296 19.9357 6.35569C19.9824 6.29841 20.0174 6.2325 20.0386 6.16171C20.0598 6.09092 20.0669 6.01663 20.0594 5.94311C20.052 5.86958 20.0301 5.79824 19.9951 5.73317C19.96 5.66809 19.9125 5.61056 19.8552 5.56385C19.798 5.51713 19.732 5.48216 19.6612 5.46092ZM8.25 20.4375C7.61957 20.4375 7.0033 20.2505 6.47912 19.9003C5.95494 19.5501 5.54639 19.0522 5.30513 18.4698C5.06388 17.8874 5.00076 17.2465 5.12375 16.6281C5.24674 16.0098 5.55032 15.4419 5.9961 14.9961C6.44188 14.5503 7.00983 14.2467 7.62815 14.1237C8.24646 14.0007 8.88736 14.0639 9.4698 14.3051C10.0522 14.5464 10.5501 14.9549 10.9003 15.4791C11.2506 16.0033 11.4375 16.6196 11.4375 17.25C11.4375 18.0954 11.1017 18.9061 10.5039 19.5039C9.90613 20.1017 9.09538 20.4375 8.25 20.4375Z"/>
</svg>