<svg class="css-icon" viewBox="-1 -1 23 23" xmlns="http://www.w3.org/2000/svg" fill="none" stroke="currentColor" stroke-width="1" stroke-linecap="round" stroke-linejoin="round">
  <path d="M5.75 8.625a5.75 5.75 0 1 0 11.5 0A5.75 5.75 0 0 0 5.75 8.625"/>
  <path d="M11.5 2.875c1.2774583333333334 0.31912500000000005 1.9166666666666667 2.235791666666667 1.9166666666666667 5.75s-0.6392083333333334 5.430875 -1.9166666666666667 5.75"/>
  <path d="M11.5 2.875c-1.2774583333333334 0.31912500000000005 -1.9166666666666667 2.235791666666667 -1.9166666666666667 5.75s0.6392083333333334 5.430875 1.9166666666666667 5.75"/>
  <path d="M5.75 8.625h11.5"/>
  <path d="M2.875 19.166666666666668h6.708333333333334"/>
  <path d="M13.416666666666668 19.166666666666668h6.708333333333334"/>
  <path d="M9.583333333333334 19.166666666666668a1.9166666666666667 1.9166666666666667 0 1 0 3.8333333333333335 0 1.9166666666666667 1.9166666666666667 0 0 0 -3.8333333333333335 0"/>
  <path d="M11.5 14.375v2.875"/>
</svg>