<svg class="css-icon" viewBox="-1 -1 23 23" xmlns="http://www.w3.org/2000/svg" fill="none" stroke="currentColor" stroke-width="1" stroke-linecap="round" stroke-linejoin="round">
  <path d="M45.1169 21.5128L27.4103 10.919C26.9723 10.6525 26.4707 10.5085 25.958 10.5021C25.4453 10.4956 24.9402 10.627 24.4956 10.8825C24.0132 11.1634 23.6138 11.5669 23.3378 12.0522C23.0618 12.5374 22.9192 13.0871 22.9244 13.6453V21.0562L5.98188 10.9162C5.54384 10.6497 5.04226 10.5057 4.52954 10.4992C4.01682 10.4928 3.51179 10.6242 3.0672 10.8797C2.5848 11.1606 2.18533 11.5641 1.90936 12.0494C1.6334 12.5346 1.49076 13.0843 1.49595 13.6425V34.3612C1.4905 34.9196 1.63302 35.4695 1.909 35.9549C2.18499 36.4403 2.58459 36.8441 3.0672 37.125C3.51179 37.3804 4.01682 37.5118 4.52954 37.5054C5.04226 37.4989 5.54384 37.3549 5.98188 37.0884L22.9244 26.9437V34.3575C22.9183 34.9165 23.0605 35.4671 23.3365 35.9533C23.6125 36.4394 24.0125 36.8437 24.4956 37.125C24.9402 37.3804 25.4453 37.5118 25.958 37.5054C26.4707 37.4989 26.9723 37.3549 27.4103 37.0884L45.1169 26.4947C45.5378 26.231 45.8849 25.8647 46.1254 25.4301C46.366 24.9955 46.4922 24.507 46.4922 24.0103C46.4922 23.5136 46.366 23.025 46.1254 22.5905C45.8849 22.1559 45.5378 21.7896 45.1169 21.5259V21.5128Z"/>
</svg>