<svg class="css-icon" viewBox="-1 -1 23 23" xmlns="http://www.w3.org/2000/svg" fill="none" stroke="currentColor" stroke-width="1" stroke-linecap="round" stroke-linejoin="round">
  <path d="M16.875 10.5C16.875 10.5995 16.8355 10.6948 16.7652 10.7652C16.6948 10.8355 16.5995 10.875 16.5 10.875H10.5C10.4005 10.875 10.3052 10.8355 10.2348 10.7652C10.1645 10.6948 10.125 10.5995 10.125 10.5C10.125 10.4005 10.1645 10.3052 10.2348 10.2348C10.3052 10.1645 10.4005 10.125 10.5 10.125H16.5C16.5995 10.125 16.6948 10.1645 16.7652 10.2348C16.8355 10.3052 16.875 10.4005 16.875 10.5ZM16.5 13.125H10.5C10.4005 13.125 10.3052 13.1645 10.2348 13.2348C10.1645 13.3052 10.125 13.4005 10.125 13.5C10.125 13.5995 10.1645 13.6948 10.2348 13.7652C10.3052 13.8355 10.4005 13.875 10.5 13.875H16.5C16.5995 13.875 16.6948 13.8355 16.7652 13.7652C16.8355 13.6948 16.875 13.5995 16.875 13.5C16.875 13.4005 16.8355 13.3052 16.7652 13.2348C16.6948 13.1645 16.5995 13.125 16.5 13.125ZM20.625 4.5V19.5C20.625 19.7984 20.5065 20.0845 20.2955 20.2955C20.0845 20.5065 19.7984 20.625 19.5 20.625H4.5C4.20163 20.625 3.91548 20.5065 3.7045 20.2955C3.49353 20.0845 3.375 19.7984 3.375 19.5V4.5C3.375 4.20163 3.49353 3.91548 3.7045 3.7045C3.91548 3.49353 4.20163 3.375 4.5 3.375H19.5C19.7984 3.375 20.0845 3.49353 20.2955 3.7045C20.5065 3.91548 20.625 4.20163 20.625 4.5ZM4.5 19.875H7.125V4.125H4.5C4.40054 4.125 4.30516 4.16451 4.23484 4.23484C4.16451 4.30516 4.125 4.40054 4.125 4.5V19.5C4.125 19.5995 4.16451 19.6948 4.23484 19.7652C4.30516 19.8355 4.40054 19.875 4.5 19.875ZM19.875 4.5C19.875 4.40054 19.8355 4.30516 19.7652 4.23484C19.6948 4.16451 19.5995 4.125 19.5 4.125H7.875V19.875H19.5C19.5995 19.875 19.6948 19.8355 19.7652 19.7652C19.8355 19.6948 19.875 19.5995 19.875 19.5V4.5Z"/>
</svg>