<svg class="css-icon" viewBox="-1 -1 23 23" xmlns="http://www.w3.org/2000/svg" fill="none" stroke="currentColor" stroke-width="1" stroke-linecap="round" stroke-linejoin="round">
  <path d="M21.69 10.8928L8.18252 2.63062C7.98327 2.50841 7.75499 2.44162 7.52128 2.43717C7.28757 2.43272 7.05691 2.49077 6.85315 2.60531C6.65047 2.71661 6.48163 2.8806 6.36446 3.07995C6.2473 3.27929 6.18616 3.50659 6.18752 3.73781V20.2622C6.18616 20.4934 6.2473 20.7207 6.36446 20.92C6.48163 21.1194 6.65047 21.2834 6.85315 21.3947C7.05691 21.5092 7.28757 21.5673 7.52128 21.5628C7.75499 21.5584 7.98327 21.4916 8.18252 21.3694L21.69 13.1072C21.8802 12.9916 22.0373 12.8291 22.1464 12.6351C22.2555 12.4412 22.3128 12.2225 22.3128 12C22.3128 11.7775 22.2555 11.5588 22.1464 11.3648C22.0373 11.1709 21.8802 11.0084 21.69 10.8928ZM21.1031 12.1472L7.59377 20.4094C7.56461 20.4269 7.53123 20.4362 7.49721 20.4362C7.46319 20.4362 7.42981 20.4269 7.40065 20.4094C7.37239 20.3956 7.3486 20.3741 7.33201 20.3474C7.31543 20.3207 7.30672 20.2899 7.3069 20.2584V3.73781C7.30672 3.70638 7.31543 3.67553 7.33201 3.64883C7.3486 3.62212 7.37239 3.60065 7.40065 3.58687C7.43098 3.56996 7.46531 3.56154 7.50002 3.5625C7.5333 3.56369 7.56566 3.57372 7.59377 3.59156L21.1031 11.8528C21.1288 11.8679 21.1501 11.8894 21.1649 11.9152C21.1797 11.941 21.1875 11.9702 21.1875 12C21.1875 12.0298 21.1797 12.059 21.1649 12.0848C21.1501 12.1106 21.1288 12.1321 21.1031 12.1472Z"/>
</svg>