<svg width="24" height="24" viewBox="0 0 24 24" fill="none" xmlns="http://www.w3.org/2000/svg">
<path d="M3.1875 6C3.1875 5.85082 3.24676 5.70774 3.35225 5.60225C3.45774 5.49676 3.60082 5.4375 3.75 5.4375H20.25C20.3992 5.4375 20.5423 5.49676 20.6477 5.60225C20.7532 5.70774 20.8125 5.85082 20.8125 6C20.8125 6.14918 20.7532 6.29226 20.6477 6.39775C20.5423 6.50324 20.3992 6.5625 20.25 6.5625H3.75C3.60082 6.5625 3.45774 6.50324 3.35225 6.39775C3.24676 6.29226 3.1875 6.14918 3.1875 6ZM3.75 12.5625H15C15.1492 12.5625 15.2923 12.5032 15.3977 12.3977C15.5032 12.2923 15.5625 12.1492 15.5625 12C15.5625 11.8508 15.5032 11.7077 15.3977 11.6023C15.2923 11.4968 15.1492 11.4375 15 11.4375H3.75C3.60082 11.4375 3.45774 11.4968 3.35225 11.6023C3.24676 11.7077 3.1875 11.8508 3.1875 12C3.1875 12.1492 3.24676 12.2923 3.35225 12.3977C3.45774 12.5032 3.60082 12.5625 3.75 12.5625ZM10.5 17.4375H3.75C3.60082 17.4375 3.45774 17.4968 3.35225 17.6023C3.24676 17.7077 3.1875 17.8508 3.1875 18C3.1875 18.1492 3.24676 18.2923 3.35225 18.3977C3.45774 18.5032 3.60082 18.5625 3.75 18.5625H10.5C10.6492 18.5625 10.7923 18.5032 10.8977 18.3977C11.0032 18.2923 11.0625 18.1492 11.0625 18C11.0625 17.8508 11.0032 17.7077 10.8977 17.6023C10.7923 17.4968 10.6492 17.4375 10.5 17.4375ZM23.0391 11.7863C22.9958 11.9289 22.8976 12.0486 22.7661 12.1189C22.6346 12.1892 22.4805 12.2045 22.3378 12.1613L19.3125 11.2556V18C19.3125 18.6336 19.0986 19.2486 18.7054 19.7454C18.3122 20.2422 17.7628 20.5917 17.1462 20.7373C16.5296 20.8828 15.8818 20.8159 15.308 20.5474C14.7341 20.2789 14.2678 19.8245 13.9844 19.2578C13.7011 18.6911 13.6174 18.0454 13.7469 17.4252C13.8764 16.805 14.2115 16.2467 14.6979 15.8407C15.1843 15.4347 15.7936 15.2049 16.4269 15.1884C17.0603 15.172 17.6806 15.3699 18.1875 15.75V10.5C18.1875 10.4123 18.2079 10.3259 18.2473 10.2475C18.2866 10.1692 18.3437 10.1011 18.414 10.0487C18.4843 9.99634 18.5659 9.96113 18.6522 9.94589C18.7386 9.93065 18.8273 9.93581 18.9112 9.96094L22.6612 11.0859C22.7321 11.1071 22.798 11.142 22.8553 11.1886C22.9126 11.2353 22.9602 11.2928 22.9953 11.3578C23.0303 11.4228 23.0523 11.4942 23.0598 11.5677C23.0673 11.6412 23.0603 11.7155 23.0391 11.7863ZM18.1875 18C18.1875 17.6662 18.0885 17.34 17.9031 17.0625C17.7177 16.785 17.4541 16.5687 17.1458 16.441C16.8374 16.3132 16.4981 16.2798 16.1708 16.3449C15.8434 16.41 15.5428 16.5708 15.3068 16.8068C15.0708 17.0428 14.91 17.3434 14.8449 17.6708C14.7798 17.9981 14.8132 18.3374 14.941 18.6458C15.0687 18.9541 15.285 19.2177 15.5625 19.4031C15.84 19.5885 16.1662 19.6875 16.5 19.6875C16.9476 19.6875 17.3768 19.5097 17.6932 19.1932C18.0097 18.8768 18.1875 18.4476 18.1875 18Z" fill="currentColor"/>
</svg>
