<svg width="48" height="48" viewBox="0 0 48 48" fill="none" xmlns="http://www.w3.org/2000/svg">
<path d="M2.87921 21.5128L20.5858 10.919C21.0238 10.6525 21.5254 10.5085 22.0381 10.5021C22.5508 10.4956 23.0559 10.627 23.5005 10.8825C23.9829 11.1634 24.3823 11.5669 24.6583 12.0522C24.9343 12.5374 25.0769 13.0871 25.0717 13.6453V21.0562L42.0142 10.9162C42.4523 10.6497 42.9538 10.5057 43.4666 10.4992C43.9793 10.4928 44.4843 10.6242 44.9289 10.8797C45.4113 11.1606 45.8108 11.5641 46.0867 12.0494C46.3627 12.5346 46.5053 13.0843 46.5001 13.6425V34.3612C46.5056 34.9196 46.3631 35.4695 46.0871 35.9549C45.8111 36.4403 45.4115 36.8441 44.9289 37.125C44.4843 37.3804 43.9793 37.5118 43.4666 37.5054C42.9538 37.4989 42.4523 37.3549 42.0142 37.0884L25.0717 26.9437V34.3575C25.0778 34.9165 24.9356 35.4671 24.6596 35.9533C24.3836 36.4394 23.9836 36.8437 23.5005 37.125C23.0559 37.3804 22.5508 37.5118 22.0381 37.5054C21.5254 37.4989 21.0238 37.3549 20.5858 37.0884L2.87921 26.4947C2.45828 26.231 2.11124 25.8647 1.87068 25.4301C1.63011 24.9955 1.50391 24.507 1.50391 24.0103C1.50391 23.5136 1.63011 23.025 1.87068 22.5905C2.11124 22.1559 2.45828 21.7896 2.87921 21.5259V21.5128Z" fill="currentColor"/>
</svg>
