<svg class="css-icon" viewBox="-1 -1 23 23" xmlns="http://www.w3.org/2000/svg" fill="none" stroke="currentColor" stroke-width="1" stroke-linecap="round" stroke-linejoin="round">
  <circle cx="4.5" cy="3.5" r="3"/>
  <circle cx="16.5" cy="3.5" r="3"/>
  <path d="M6.5,14.5l0,5l-6,0c-0.021,-3.114 0.299,-6.228 1.362,-9.341c0.347,-0.987 1.279,-1.647 2.324,-1.647c0.039,-0.012 0.077,-0.012 0.116,-0.012c1.164,0 2.165,0.824 2.389,1.966c0.254,1.34 0.893,2.391 2.809,3.034"/>
  <path d="M14.5,14.5l0,5l6,0c0.043,-3.115 -0.289,-6.231 -1.36,-9.346c-0.348,-0.984 -1.279,-1.642 -2.323,-1.642c-0.04,-0.012 -0.079,-0.012 -0.119,-0.012c-1.164,0 -2.165,0.824 -2.389,1.966c-0.254,1.34 -0.893,2.391 -2.809,3.034"/>
</svg>