<svg xmlns="http://www.w3.org/2000/svg" viewBox="-0.5 -0.5 24 24" fill="none" stroke="#000000" stroke-linecap="round" stroke-linejoin="round" id="Cpu--Streamline-Tabler" height="24" width="24">
  <desc>
    Cpu Streamline Icon: https://streamlinehq.com
  </desc>
  <path d="M4.791666666666667 5.75a0.9583333333333334 0.9583333333333334 0 0 1 0.9583333333333334 -0.9583333333333334h11.5a0.9583333333333334 0.9583333333333334 0 0 1 0.9583333333333334 0.9583333333333334v11.5a0.9583333333333334 0.9583333333333334 0 0 1 -0.9583333333333334 0.9583333333333334H5.75a0.9583333333333334 0.9583333333333334 0 0 1 -0.9583333333333334 -0.9583333333333334z" stroke-width="1"></path>
  <path d="M8.625 8.625h5.75v5.75H8.625z" stroke-width="1"></path>
  <path d="M2.875 9.583333333333334h1.9166666666666667" stroke-width="1"></path>
  <path d="M2.875 13.416666666666668h1.9166666666666667" stroke-width="1"></path>
  <path d="M9.583333333333334 2.875v1.9166666666666667" stroke-width="1"></path>
  <path d="M13.416666666666668 2.875v1.9166666666666667" stroke-width="1"></path>
  <path d="M20.125 9.583333333333334h-1.9166666666666667" stroke-width="1"></path>
  <path d="M20.125 13.416666666666668h-1.9166666666666667" stroke-width="1"></path>
  <path d="M13.416666666666668 20.125v-1.9166666666666667" stroke-width="1"></path>
  <path d="M9.583333333333334 20.125v-1.9166666666666667" stroke-width="1"></path>
</svg>
