<svg width="32" height="32" viewBox="0 0 32 32" fill="none" xmlns="http://www.w3.org/2000/svg">
<path d="M29.3537 22.6463C29.4002 22.6927 29.4371 22.7479 29.4623 22.8086C29.4874 22.8693 29.5004 22.9343 29.5004 23C29.5004 23.0657 29.4874 23.1308 29.4623 23.1915C29.4371 23.2522 29.4002 23.3073 29.3537 23.3538L26.3537 26.3538C26.2599 26.4476 26.1327 26.5003 26 26.5003C25.8673 26.5003 25.7401 26.4476 25.6462 26.3538C25.5524 26.26 25.4997 26.1327 25.4997 26C25.4997 25.8674 25.5524 25.7401 25.6462 25.6463L27.7925 23.5H25.1175C23.7646 23.4986 22.4315 23.1749 21.2286 22.5558C20.0257 21.9368 18.9875 21.0401 18.2 19.94L12.9862 12.6413C12.2916 11.6705 11.3755 10.8791 10.3141 10.3329C9.25262 9.78659 8.07628 9.5011 6.8825 9.50003H4C3.86739 9.50003 3.74021 9.44736 3.64645 9.35359C3.55268 9.25982 3.5 9.13264 3.5 9.00003C3.5 8.86743 3.55268 8.74025 3.64645 8.64648C3.74021 8.55271 3.86739 8.50003 4 8.50003H6.8825C8.23538 8.5015 9.56845 8.82517 10.7714 9.44424C11.9743 10.0633 13.0125 10.96 13.8 12.06L19.0137 19.3588C19.7084 20.3296 20.6245 21.1209 21.6859 21.6672C22.7474 22.2135 23.9237 22.499 25.1175 22.5H27.7925L25.6462 20.3538C25.5524 20.26 25.4997 20.1327 25.4997 20C25.4997 19.8674 25.5524 19.7401 25.6462 19.6463C25.7401 19.5525 25.8673 19.4998 26 19.4998C26.1327 19.4998 26.2599 19.5525 26.3537 19.6463L29.3537 22.6463ZM18.1675 12.9663C18.2209 13.0045 18.2814 13.0317 18.3453 13.0465C18.4093 13.0613 18.4756 13.0634 18.5403 13.0526C18.6051 13.0418 18.6671 13.0184 18.7228 12.9836C18.7785 12.9489 18.8268 12.9035 18.865 12.85L19.0137 12.6413C19.7084 11.6705 20.6245 10.8791 21.6859 10.3329C22.7474 9.78659 23.9237 9.5011 25.1175 9.50003H27.7925L25.6462 11.6463C25.5524 11.7401 25.4997 11.8674 25.4997 12C25.4997 12.1327 25.5524 12.26 25.6462 12.3538C25.7401 12.4476 25.8673 12.5003 26 12.5003C26.1327 12.5003 26.2599 12.4476 26.3537 12.3538L29.3537 9.35378C29.4002 9.30735 29.4371 9.2522 29.4623 9.1915C29.4874 9.13081 29.5004 9.06574 29.5004 9.00003C29.5004 8.93433 29.4874 8.86926 29.4623 8.80856C29.4371 8.74786 29.4002 8.69272 29.3537 8.64628L26.3537 5.64628C26.2599 5.55246 26.1327 5.49976 26 5.49976C25.8673 5.49976 25.7401 5.55246 25.6462 5.64628C25.5524 5.7401 25.4997 5.86735 25.4997 6.00003C25.4997 6.13272 25.5524 6.25996 25.6462 6.35378L27.7925 8.50003H25.1175C23.7646 8.5015 22.4315 8.82517 21.2286 9.44424C20.0257 10.0633 18.9875 10.96 18.2 12.06L18.0512 12.2688C18.0131 12.3222 17.9858 12.3826 17.971 12.4466C17.9562 12.5106 17.9541 12.5768 17.9649 12.6416C17.9757 12.7064 17.9992 12.7684 18.0339 12.8241C18.0687 12.8798 18.1141 12.9281 18.1675 12.9663ZM13.8325 19.0338C13.7791 18.9956 13.7186 18.9683 13.6547 18.9535C13.5907 18.9387 13.5244 18.9367 13.4597 18.9474C13.3949 18.9582 13.3329 18.9817 13.2772 19.0164C13.2215 19.0512 13.1732 19.0966 13.135 19.15L12.9862 19.3588C12.2916 20.3296 11.3755 21.1209 10.3141 21.6672C9.25262 22.2135 8.07628 22.499 6.8825 22.5H4C3.86739 22.5 3.74021 22.5527 3.64645 22.6465C3.55268 22.7402 3.5 22.8674 3.5 23C3.5 23.1326 3.55268 23.2598 3.64645 23.3536C3.74021 23.4474 3.86739 23.5 4 23.5H6.8825C8.23538 23.4986 9.56845 23.1749 10.7714 22.5558C11.9743 21.9368 13.0125 21.0401 13.8 19.94L13.9487 19.7313C13.9869 19.6779 14.0142 19.6174 14.029 19.5535C14.0438 19.4895 14.0459 19.4232 14.0351 19.3585C14.0243 19.2937 14.0008 19.2317 13.9661 19.176C13.9313 19.1203 13.8859 19.0719 13.8325 19.0338Z" fill="currentColor"/>
</svg>
