<svg viewBox="0 0 16 16" xmlns="http://www.w3.org/2000/svg" aria-hidden="true">
<path d="M13.0303 7.03033L15.5607 4.5L13.0303 1.96967L11.9697 3.03033L12.6894 3.75H12.2443C10.9235 3.75 9.66227 4.29996 8.76351 5.26786L7.25 6.89779L5.73649 5.26786C4.83773 4.29996 3.57655 3.75 2.25572 3.75H1V5.25H2.25572C3.15945 5.25 4.02236 5.62629 4.6373 6.28853L6.22652 8L4.6373 9.71147C4.02236 10.3737 3.15945 10.75 2.25572 10.75H1V12.25H2.25572C3.57655 12.25 4.83773 11.7 5.73649 10.7321L7.25 9.10221L8.76351 10.7321C9.66227 11.7 10.9235 12.25 12.2443 12.25H12.6893L11.9697 12.9697L13.0303 14.0303L15.5607 11.5L13.0303 8.96967L11.9697 10.0303L12.6894 10.75H12.2443C11.3406 10.75 10.4776 10.3737 9.8627 9.71147L8.27348 8L9.8627 6.28853C10.4776 5.62629 11.3406 5.25 12.2443 5.25H12.6893L11.9697 5.96967L13.0303 7.03033Z" fill="currentColor"></path>
</svg>