<svg width="706" height="200" viewBox="0 0 706 200" fill="none" xmlns="http://www.w3.org/2000/svg">
<g clip-path="url(#clip0_304_11499)">
<line x1="9.5" y1="200" x2="9.5" stroke="#707070" stroke-opacity="0.1"/>
<line x1="35.9453" y1="200" x2="35.9453" stroke="#707070" stroke-opacity="0.1"/>
<line x1="62.3887" y1="200" x2="62.3887" stroke="#707070" stroke-opacity="0.1"/>
<line x1="88.834" y1="200" x2="88.834" stroke="#707070" stroke-opacity="0.1"/>
<line x1="115.277" y1="200" x2="115.277" stroke="#707070" stroke-opacity="0.1"/>
<line x1="141.723" y1="200" x2="141.723" stroke="#707070" stroke-opacity="0.1"/>
<line x1="168.166" y1="200" x2="168.166" stroke="#707070" stroke-opacity="0.1"/>
<line x1="194.611" y1="200" x2="194.611" stroke="#707070" stroke-opacity="0.1"/>
<line x1="221.055" y1="200" x2="221.055" stroke="#707070" stroke-opacity="0.1"/>
<line x1="247.5" y1="200" x2="247.5" stroke="#707070" stroke-opacity="0.1"/>
<line x1="273.945" y1="200" x2="273.945" stroke="#707070" stroke-opacity="0.1"/>
<line x1="300.389" y1="200" x2="300.389" stroke="#707070" stroke-opacity="0.1"/>
<line x1="326.834" y1="200" x2="326.834" stroke="#707070" stroke-opacity="0.1"/>
<line x1="353.277" y1="200" x2="353.277" stroke="#707070" stroke-opacity="0.1"/>
<line x1="379.723" y1="200" x2="379.723" stroke="#707070" stroke-opacity="0.1"/>
<line x1="406.166" y1="200" x2="406.166" stroke="#707070" stroke-opacity="0.1"/>
<line x1="432.611" y1="200" x2="432.611" stroke="#707070" stroke-opacity="0.1"/>
<line x1="459.055" y1="200" x2="459.055" stroke="#707070" stroke-opacity="0.1"/>
<line x1="485.5" y1="200" x2="485.5" stroke="#707070" stroke-opacity="0.1"/>
<line x1="511.945" y1="200" x2="511.945" stroke="#707070" stroke-opacity="0.1"/>
<line x1="538.389" y1="200" x2="538.389" stroke="#707070" stroke-opacity="0.1"/>
<line x1="564.834" y1="200" x2="564.834" stroke="#707070" stroke-opacity="0.1"/>
<line x1="591.277" y1="200" x2="591.277" stroke="#707070" stroke-opacity="0.1"/>
<line x1="617.723" y1="200" x2="617.723" stroke="#707070" stroke-opacity="0.1"/>
<line x1="644.166" y1="200" x2="644.166" stroke="#707070" stroke-opacity="0.1"/>
<line x1="670.611" y1="200" x2="670.611" stroke="#707070" stroke-opacity="0.1"/>
<line x1="697.057" y1="200" x2="697.057" stroke="#707070" stroke-opacity="0.1"/>
<line y1="99.5" x2="714" y2="99.5" stroke="#707070" stroke-opacity="0.5"/>
<path d="M-4 99L115.465 79.7398C122.576 78.5935 129.85 78.9967 136.79 80.922L249.236 112.116C254.92 113.693 260.838 114.252 266.717 113.766L439.178 99.5252C443.402 99.1765 447.653 99.3661 451.828 100.09L523.754 112.55C531.162 113.834 538.763 113.43 545.994 111.369L619.439 90.4363C631.69 86.9444 644.812 88.2608 656.126 94.1165L710 122" stroke="#191717"/>
<path d="M11.448 9.708V10.954H8.816V13.586H7.528V10.954H4.91V9.708H7.528V7.048H8.816V9.708H11.448ZM14.9018 15V7.062L13.2358 8.126L12.6478 7.104L15.1818 5.382H16.3298V15H14.9018ZM21.7622 15.168C20.2362 15.168 19.0882 14.552 18.2622 13.656L19.1442 12.648C19.8862 13.418 20.7822 13.922 21.8042 13.922C23.0502 13.922 23.8902 13.082 23.8902 12.004C23.8902 10.898 23.0362 10.156 21.7902 10.156C20.9922 10.156 20.3062 10.422 19.7322 10.856L18.7382 10.408L18.8782 5.382H24.8002V6.698H20.2222L20.1382 9.554C20.6422 9.218 21.2862 8.938 22.1402 8.938C23.8622 8.938 25.3182 10.03 25.3182 11.948C25.3182 13.894 23.8482 15.168 21.7622 15.168ZM36.6386 5.214H38.0106V15H36.6386V13.74C36.0786 14.636 35.1826 15.168 34.0626 15.168C32.1586 15.168 30.7306 13.6 30.7306 11.374C30.7306 9.162 32.1586 7.594 34.0626 7.594C35.1826 7.594 36.0786 8.126 36.6386 9.008V5.214ZM34.3986 13.964C35.7006 13.964 36.6386 12.886 36.6386 11.374C36.6386 9.862 35.7006 8.798 34.3986 8.798C33.0686 8.798 32.1306 9.862 32.1306 11.374C32.1306 12.886 33.0686 13.964 34.3986 13.964ZM40.3 15V5.382H44.864C46.474 5.382 47.608 6.376 47.608 7.776C47.608 8.784 47.104 9.414 46.236 9.904C47.356 10.45 48 11.318 48 12.382C48 13.922 46.768 15 45.046 15H40.3ZM41.714 9.386H44.514C45.48 9.386 46.166 8.812 46.166 8.014C46.166 7.216 45.48 6.628 44.514 6.628H41.714V9.386ZM41.714 13.754H44.724C45.802 13.754 46.558 13.096 46.558 12.172C46.558 11.248 45.802 10.59 44.724 10.59H41.714V13.754Z" fill="#707070"/>
<path d="M4.728 189.808V188.548H8.424V189.808H4.728ZM11.73 193V185.062L10.064 186.126L9.47597 185.104L12.01 183.382H13.158V193H11.73ZM18.5903 193.168C17.0643 193.168 15.9163 192.552 15.0903 191.656L15.9723 190.648C16.7143 191.418 17.6103 191.922 18.6323 191.922C19.8783 191.922 20.7183 191.082 20.7183 190.004C20.7183 188.898 19.8643 188.156 18.6183 188.156C17.8203 188.156 17.1343 188.422 16.5603 188.856L15.5663 188.408L15.7063 183.382H21.6283V184.698H17.0503L16.9663 187.554C17.4703 187.218 18.1143 186.938 18.9683 186.938C20.6903 186.938 22.1463 188.03 22.1463 189.948C22.1463 191.894 20.6763 193.168 18.5903 193.168ZM33.4667 183.214H34.8387V193H33.4667V191.74C32.9067 192.636 32.0107 193.168 30.8907 193.168C28.9867 193.168 27.5587 191.6 27.5587 189.374C27.5587 187.162 28.9867 185.594 30.8907 185.594C32.0107 185.594 32.9067 186.126 33.4667 187.008V183.214ZM31.2267 191.964C32.5287 191.964 33.4667 190.886 33.4667 189.374C33.4667 187.862 32.5287 186.798 31.2267 186.798C29.8967 186.798 28.9587 187.862 28.9587 189.374C28.9587 190.886 29.8967 191.964 31.2267 191.964ZM37.1282 193V183.382H41.6922C43.3022 183.382 44.4362 184.376 44.4362 185.776C44.4362 186.784 43.9322 187.414 43.0642 187.904C44.1842 188.45 44.8282 189.318 44.8282 190.382C44.8282 191.922 43.5962 193 41.8742 193H37.1282ZM38.5422 187.386H41.3422C42.3082 187.386 42.9942 186.812 42.9942 186.014C42.9942 185.216 42.3082 184.628 41.3422 184.628H38.5422V187.386ZM38.5422 191.754H41.5522C42.6302 191.754 43.3862 191.096 43.3862 190.172C43.3862 189.248 42.6302 188.59 41.5522 188.59H38.5422V191.754Z" fill="#707070"/>
<path d="M6.562 118V110.062L4.896 111.126L4.308 110.104L6.842 108.382H7.99V118H6.562ZM14.1083 118.168C11.6863 118.168 9.99233 116.11 9.99233 113.184C9.99233 110.272 11.6863 108.214 14.1083 108.214C16.5023 108.214 18.2103 110.272 18.2103 113.184C18.2103 116.11 16.5023 118.168 14.1083 118.168ZM14.1083 116.866C15.6623 116.866 16.7543 115.34 16.7543 113.184C16.7543 111.028 15.6623 109.516 14.1083 109.516C12.5403 109.516 11.4343 111.028 11.4343 113.184C11.4343 115.34 12.5403 116.866 14.1083 116.866ZM26.6847 108.382H28.0987V118H26.6847V113.758H21.4347V118H20.0207V108.382H21.4347V112.442H26.6847V108.382ZM29.8426 118V116.964L33.9026 112.008H29.9266V110.762H35.7226V111.798L31.6626 116.754H35.7506V118H29.8426Z" fill="#191717"/>
<path d="M204.562 118V110.062L202.896 111.126L202.308 110.104L204.842 108.382H205.99V118H204.562ZM212.108 118.168C209.686 118.168 207.992 116.11 207.992 113.184C207.992 110.272 209.686 108.214 212.108 108.214C214.502 108.214 216.21 110.272 216.21 113.184C216.21 116.11 214.502 118.168 212.108 118.168ZM212.108 116.866C213.662 116.866 214.754 115.34 214.754 113.184C214.754 111.028 213.662 109.516 212.108 109.516C210.54 109.516 209.434 111.028 209.434 113.184C209.434 115.34 210.54 116.866 212.108 116.866ZM221.843 118.168C219.421 118.168 217.727 116.11 217.727 113.184C217.727 110.272 219.421 108.214 221.843 108.214C224.237 108.214 225.945 110.272 225.945 113.184C225.945 116.11 224.237 118.168 221.843 118.168ZM221.843 116.866C223.397 116.866 224.489 115.34 224.489 113.184C224.489 111.028 223.397 109.516 221.843 109.516C220.275 109.516 219.169 111.028 219.169 113.184C219.169 115.34 220.275 116.866 221.843 116.866ZM234.293 110.762L231.171 114.038L234.153 118H232.501L230.233 114.962L229.071 116.138V118H227.699V108.214H229.071V114.458L232.613 110.762H234.293Z" fill="#191717"/>
<path d="M446.562 118V110.062L444.896 111.126L444.308 110.104L446.842 108.382H447.99V118H446.562ZM456.824 110.762L453.702 114.038L456.684 118H455.032L452.764 114.962L451.602 116.138V118H450.23V108.214H451.602V114.458L455.144 110.762H456.824Z" fill="#191717"/>
<path d="M650.562 118V110.062L648.896 111.126L648.308 110.104L650.842 108.382H651.99V118H650.562ZM658.108 118.168C655.686 118.168 653.992 116.11 653.992 113.184C653.992 110.272 655.686 108.214 658.108 108.214C660.502 108.214 662.21 110.272 662.21 113.184C662.21 116.11 660.502 118.168 658.108 118.168ZM658.108 116.866C659.662 116.866 660.754 115.34 660.754 113.184C660.754 111.028 659.662 109.516 658.108 109.516C656.54 109.516 655.434 111.028 655.434 113.184C655.434 115.34 656.54 116.866 658.108 116.866ZM670.559 110.762L667.437 114.038L670.419 118H668.767L666.499 114.962L665.337 116.138V118H663.965V108.214H665.337V114.458L668.879 110.762H670.559Z" fill="#191717"/>
</g>
<rect x="0.5" y="0.5" width="705" height="199" rx="4.5" stroke="#707070" stroke-opacity="0.2"/>
<defs>
<clipPath id="clip0_304_11499">
<rect width="706" height="200" rx="5" fill="white"/>
</clipPath>
</defs>
</svg>
