<svg class="css-icon" viewBox="-1 -1 23 23" xmlns="http://www.w3.org/2000/svg" fill="none" stroke="currentColor" stroke-width="1" stroke-linecap="round" stroke-linejoin="round">
  <path d="M19.5,2.993c0,-0.396 -0.157,-0.776 -0.437,-1.056c-0.28,-0.28 -0.66,-0.437 -1.056,-0.437l-15.014,0c-0.396,0 -0.776,0.157 -1.056,0.437c-0.28,0.28 -0.437,0.66 -0.437,1.056l0,15.014c0,0.396 0.157,0.776 0.437,1.056c0.28,0.28 0.66,0.437 1.056,0.437l15.014,0c0.396,0 0.776,-0.157 1.056,-0.437c0.28,-0.28 0.437,-0.66 0.437,-1.056l0,-15.014Z"/>
  <path d="M4.5,4.5l3,3l-3,3"/>
  <path d="M8.5,10.5l4,0"/>
</svg>