<svg class="css-icon" viewBox="-1 -1 23 23" xmlns="http://www.w3.org/2000/svg" fill="none" stroke="currentColor" stroke-width="1" stroke-linecap="round" stroke-linejoin="round">
  <path d="M5.01,8.1c0.927,-2.118 3.042,-3.6 5.5,-3.6c3.312,0 6,2.689 6,6c0,3.311 -2.688,6 -6,6c-2.458,0 -4.573,-1.482 -5.5,-3.6"/>
  <path d="M11.5,10.5l-11,0"/>
  <path d="M9.5,7.5l3,3l-3,3"/>
  <path d="M10.5,18.5l0,2"/>
  <path d="M10.5,0.5l0,2"/>
  <path d="M4.843,16.157l-1.414,1.414"/>
  <path d="M17.571,3.429l-1.414,1.414"/>
  <path d="M20.5,10.5l-2,0"/>
  <path d="M4.843,4.843l-1.414,-1.414"/>
  <path d="M17.571,17.571l-1.414,-1.414"/>
</svg>