<svg class="css-icon" viewBox="-1 -1 23 23" xmlns="http://www.w3.org/2000/svg" fill="none" stroke="currentColor" stroke-width="1" stroke-linecap="round" stroke-linejoin="round">
  <path d="M7.666666666666667 6.708333333333334a3.8333333333333335 3.8333333333333335 0 1 0 7.666666666666667 0 3.8333333333333335 3.8333333333333335 0 0 0 -7.666666666666667 0"/>
  <path d="M5.75 20.125v-1.9166666666666667a3.8333333333333335 3.8333333333333335 0 0 1 3.8333333333333335 -3.8333333333333335h0.4791666666666667"/>
  <path d="m17.058333333333334 19.949625 -2.0815 1.0905833333333332a0.3756666666666667 0.3756666666666667 0 0 1 -0.5443333333333333 -0.39291666666666664l0.39770833333333333 -2.310541666666667 -1.6837916666666666 -1.6358750000000002a0.3727916666666667 0.3727916666666667 0 0 1 0.20795833333333333 -0.6372916666666667l2.3268333333333335 -0.3373333333333333 1.04075 -2.1016250000000003a0.3756666666666667 0.3756666666666667 0 0 1 0.67275 0l1.04075 2.1016250000000003 2.3268333333333335 0.3373333333333333a0.37375 0.37375 0 0 1 0.20795833333333333 0.6372916666666667l-1.6837916666666666 1.6358750000000002 0.39675 2.3095833333333338a0.37375 0.37375 0 0 1 -0.5433749999999999 0.393875L17.058333333333334 19.949625z"/>
</svg>