<svg class="css-icon" viewBox="-1 -1 23 23" xmlns="http://www.w3.org/2000/svg" fill="none" stroke="currentColor" stroke-width="1" stroke-linecap="round" stroke-linejoin="round">
  <path d="M10.0491 14.9062C11.1406 14.4096 12.0292 13.5543 12.5672 12.4826C13.1051 11.4108 13.2599 10.1872 13.0058 9.01526C12.7518 7.8433 12.1042 6.79364 11.1707 6.04086C10.2372 5.28807 9.07419 4.87754 7.87501 4.87754C6.67583 4.87754 5.51279 5.28807 4.57933 6.04086C3.64587 6.79364 2.99825 7.8433 2.74419 9.01526C2.49013 10.1872 2.64494 11.4108 3.18287 12.4826C3.7208 13.5543 4.60943 14.4096 5.70095 14.9062C3.62058 15.4455 1.81711 16.7433 0.645015 18.5447C0.617272 18.5859 0.598002 18.6322 0.588325 18.681C0.578647 18.7297 0.578756 18.7799 0.588643 18.8286C0.598531 18.8773 0.618001 18.9236 0.645922 18.9647C0.673842 19.0058 0.709656 19.041 0.751282 19.0681C0.792907 19.0953 0.839514 19.1139 0.888394 19.1228C0.937273 19.1318 0.987449 19.131 1.03601 19.1204C1.08456 19.1098 1.13053 19.0897 1.17124 19.0612C1.21195 19.0327 1.24659 18.9964 1.27314 18.9544C1.98821 17.8547 2.96662 16.9512 4.11953 16.3256C5.27244 15.7001 6.56334 15.3725 7.87501 15.3725C9.18669 15.3725 10.4776 15.7001 11.6305 16.3256C12.7834 16.9512 13.7618 17.8547 14.4769 18.9544C14.5034 18.9964 14.5381 19.0327 14.5788 19.0612C14.6195 19.0897 14.6655 19.1098 14.714 19.1204C14.7626 19.131 14.8128 19.1318 14.8616 19.1228C14.9105 19.1139 14.9571 19.0953 14.9987 19.0681C15.0404 19.041 15.0762 19.0058 15.1041 18.9647C15.132 18.9236 15.1515 18.8773 15.1614 18.8286C15.1713 18.7799 15.1714 18.7297 15.1617 18.681C15.152 18.6322 15.1328 18.5859 15.105 18.5447C13.9329 16.7433 12.1295 15.4455 10.0491 14.9062ZM3.37501 10.125C3.37501 9.23497 3.63893 8.36494 4.1334 7.62492C4.62787 6.8849 5.33067 6.30812 6.15294 5.96753C6.97521 5.62693 7.88001 5.53782 8.75292 5.71145C9.62584 5.88509 10.4277 6.31367 11.057 6.94301C11.6863 7.57234 12.1149 8.37417 12.2885 9.24708C12.4622 10.12 12.3731 11.0248 12.0325 11.8471C11.6919 12.6693 11.1151 13.3721 10.3751 13.8666C9.63506 14.3611 8.76503 14.625 7.87501 14.625C6.68192 14.6237 5.53805 14.1492 4.6944 13.3056C3.85076 12.462 3.37626 11.3181 3.37501 10.125ZM23.25 19.0641C23.1667 19.1182 23.0653 19.137 22.9681 19.1165C22.8709 19.0959 22.7858 19.0376 22.7316 18.9544C22.017 17.8534 21.0379 16.949 19.8839 16.3238C18.7299 15.6985 17.4376 15.3723 16.125 15.375C16.0256 15.375 15.9302 15.3355 15.8598 15.2652C15.7895 15.1948 15.75 15.0994 15.75 15C15.75 14.9005 15.7895 14.8051 15.8598 14.7348C15.9302 14.6645 16.0256 14.625 16.125 14.625C16.7878 14.6246 17.4424 14.4778 18.0419 14.1951C18.6414 13.9124 19.1711 13.5008 19.593 12.9896C20.015 12.4784 20.3188 11.8803 20.4827 11.2381C20.6467 10.5958 20.6667 9.92531 20.5415 9.27443C20.4162 8.62355 20.1486 8.00838 19.758 7.4729C19.3674 6.93741 18.8633 6.49484 18.2817 6.17681C17.7002 5.85877 17.0555 5.67314 16.3939 5.63318C15.7323 5.59321 15.07 5.6999 14.4544 5.94561C14.4087 5.96408 14.3597 5.97336 14.3104 5.97292C14.2611 5.97247 14.2123 5.96232 14.1669 5.94304C14.1215 5.92376 14.0804 5.89572 14.0458 5.86053C14.0112 5.82534 13.984 5.78369 13.9655 5.73796C13.947 5.69222 13.9377 5.64329 13.9382 5.59397C13.9386 5.54465 13.9488 5.4959 13.9681 5.4505C13.9873 5.4051 14.0154 5.36394 14.0506 5.32938C14.0858 5.29481 14.1274 5.26752 14.1731 5.24905C15.4536 4.70204 16.899 4.68611 18.1912 5.20477C19.4835 5.72342 20.5168 6.73418 21.0638 8.01467C21.6108 9.29517 21.6267 10.7405 21.108 12.0328C20.5894 13.325 19.5786 14.3583 18.2981 14.9053C20.3793 15.4457 22.1828 16.7453 23.3541 18.5484C23.4079 18.6308 23.4271 18.7311 23.4076 18.8275C23.3881 18.924 23.3315 19.0089 23.25 19.0641Z"/>
</svg>