<svg class="css-icon" viewBox="-1 -1 23 23" xmlns="http://www.w3.org/2000/svg" fill="none" stroke="currentColor" stroke-width="1" stroke-linecap="round" stroke-linejoin="round">
  <path d="M8.026,15.026c0.633,-0.634 1.508,-1.026 2.474,-1.026c0.966,0 1.841,0.392 2.474,1.026l-2.474,2.474l-2.474,-2.474Z"/>
  <path d="M5.551,12.551c1.267,-1.267 3.017,-2.051 4.949,-2.051c1.932,0 3.682,0.784 4.949,2.051"/>
  <path d="M0.602,7.602c2.535,-2.534 6.035,-4.102 9.898,-4.102c3.863,0 7.363,1.568 9.898,4.102stroke-opacity:0.25;;stroke-linejoin:miter;"/>
  <path d="M3.077,10.077c1.9,-1.901 4.525,-3.077 7.423,-3.077c2.898,0 5.523,1.176 7.423,3.077stroke-opacity:0.25;;"/>
</svg>